<?xml version="1.0" standalone="no"?>
<!DOCTYPE svg PUBLIC "-//W3C//DTD SVG 20010904//EN"
 "http://www.w3.org/TR/2001/REC-SVG-20010904/DTD/svg10.dtd">
<svg version="1.0" xmlns="http://www.w3.org/2000/svg"
 width="96.000000pt" height="96.000000pt" viewBox="0 0 96.000000 96.000000"
 preserveAspectRatio="xMidYMid meet">
<metadata>
Created by potrace 1.14, written by Peter Selinger 2001-2017
</metadata>
<g transform="translate(0.000000,96.000000) scale(0.100000,-0.100000)"
fill="#000000" stroke="none">
<path d="M364 906 c-73 -23 -184 -115 -184 -153 0 -5 -13 -30 -30 -54 -34 -51
-38 -87 -11 -120 15 -18 17 -29 9 -49 -5 -14 -7 -43 -3 -65 4 -32 2 -43 -14
-57 -38 -32 -40 -98 -4 -134 10 -10 16 -29 15 -45 -4 -36 26 -88 56 -96 12 -3
30 -15 40 -28 27 -34 61 -48 101 -42 23 4 43 1 55 -8 25 -19 63 -19 96 -1 13
8 38 12 56 9 34 -6 72 10 91 37 7 10 25 23 41 29 35 15 64 63 60 100 -1 16 5
35 15 45 35 36 34 99 -3 134 -15 14 -19 26 -14 50 6 28 9 30 38 25 69 -11 146
52 146 120 0 48 -26 94 -69 121 -22 14 -45 35 -51 46 -18 33 -127 108 -183
126 -67 21 -200 26 -253 10z m262 -80 c34 -15 76 -42 93 -60 l32 -33 -23 -9
c-13 -5 -126 -7 -263 -4 l-239 5 39 44 c60 67 121 91 220 87 61 -2 94 -9 141
-30z m214 -173 c27 -35 22 -71 -12 -96 -23 -17 -33 -19 -55 -11 -20 7 -27 16
-24 30 2 10 4 35 5 54 0 19 6 38 11 42 21 16 54 7 75 -19z m-146 -8 c3 -8 3
-22 0 -30 -5 -13 -43 -15 -254 -15 -245 0 -249 0 -255 21 -5 14 -2 25 6 30 8
5 123 9 255 9 206 0 243 -2 248 -15z m-18 -140 c7 -40 -10 -74 -51 -101 -20
-13 -40 -15 -84 -11 -65 5 -77 1 -82 -28 -3 -11 -11 -20 -19 -20 -8 0 -16 9
-19 20 -5 29 -17 33 -82 28 -44 -4 -64 -2 -84 11 -41 27 -58 61 -51 101 l7 35
229 0 229 0 7 -35z m-360 -177 c36 0 53 -6 71 -24 31 -31 73 -31 106 0 19 17
38 24 72 24 28 1 61 10 82 22 43 25 60 25 68 0 8 -25 0 -39 -31 -50 -26 -10
-32 -38 -12 -58 19 -19 -6 -62 -37 -62 -18 0 -28 -7 -35 -24 -12 -32 -43 -41
-73 -21 -22 14 -25 14 -51 -10 -34 -32 -47 -31 -75 1 -21 24 -23 25 -47 9 -31
-20 -62 -11 -74 21 -7 17 -17 24 -35 24 -31 0 -56 43 -37 62 20 20 14 48 -13
58 -32 12 -40 32 -25 59 l11 21 43 -25 c29 -17 60 -26 92 -27z"/>
<path d="M310 485 c-15 -18 -10 -45 13 -59 34 -22 73 27 47 59 -16 19 -44 19
-60 0z"/>
<path d="M510 485 c-15 -18 -10 -45 13 -59 34 -22 73 27 47 59 -16 19 -44 19
-60 0z"/>
</g>
</svg>
